{"glyphs":{" ":{"ha":347,"x_min":0,"x_max":0,"o":""},"!":{"ha":392,"x_min":0,"x_max":0,"o":"m 186 1111 l 0 1111 l 0 371 l 186 371 z m 0 0 l 186 0 l 186 186 l 0 186 z "},"&":{"ha":1439,"x_min":0,"x_max":0,"o":"m 1225 793 l 1371 978 l 639 978 l 669 1018 l 743 1111 l 742 1111 l 507 1111 l 433 1018 l 144 649 l 0 463 l 235 463 l 726 463 l 556 243 l 438 92 l 365 0 l 601 0 l 672 92 l 964 463 l 1111 649 l 381 649 l 493 793 z "},"+":{"ha":1167,"x_min":0,"x_max":0,"o":"m 0 649 l 0 463 l 463 463 l 463 649 z m 649 649 l 649 463 l 1111 463 l 1111 649 z m 463 0 l 649 0 l 649 463 l 463 463 z m 649 1111 l 463 1111 l 463 649 l 649 649 z "},"/":{"ha":1233,"x_min":0,"x_max":0,"o":"m 435 556 l 0 0 l 436 556 z m 238 0 l 553 404 l 553 406 z m 869 1111 l 435 556 l 436 556 l 0 0 l 238 0 l 553 406 l 553 404 l 671 556 l 1104 1111 z "},"A":{"ha":1249,"x_min":0,"x_max":0,"o":"m 461 369 l 461 369 l 625 696 l 788 369 l 996 369 l 625 1111 l 69 0 l 275 0 l 369 186 z m 1088 185 l 882 185 l 882 185 l 974 0 l 1181 0 z "},"B":{"ha":1124,"x_min":0,"x_max":0,"o":"m 925 788 b 900 913 925 832 917 874 b 831 1015 883 953 860 986 b 726 1086 801 1046 767 1068 b 601 1111 686 1103 644 1111 l 0 1111 l 185 925 l 601 925 b 654 915 619 925 638 922 b 700 885 672 908 688 899 b 729 840 713 872 722 857 b 740 788 736 824 740 806 b 729 733 740 768 736 750 b 700 689 722 717 713 701 b 654 658 688 675 672 665 b 601 647 638 650 619 647 l 185 647 l 185 647 l 111 647 l 0 647 l 0 463 l 185 463 l 185 463 l 601 463 b 657 451 621 463 639 458 b 700 421 674 444 688 433 b 729 376 713 408 722 393 b 740 324 736 360 740 342 b 729 271 740 306 736 288 b 700 226 722 254 713 239 b 654 196 688 213 672 203 b 601 186 638 189 619 186 l 185 186 l 185 0 l 601 0 b 726 25 646 0 688 8 b 831 96 767 43 801 65 b 900 199 860 125 883 158 b 925 324 917 238 925 279 b 828 556 925 415 893 493 b 925 788 893 619 925 697 z "},"C":{"ha":1000,"x_min":0,"x_max":0,"o":"m 342 44 b 557 0 408 15 481 0 b 772 43 633 0 706 14 l 557 186 b 413 214 506 186 458 196 b 296 294 368 233 329 260 b 215 411 261 328 235 367 b 186 556 196 457 186 504 b 215 700 186 607 196 654 b 294 817 235 744 261 783 b 413 897 328 851 367 878 b 557 925 457 915 506 925 b 818 818 657 925 744 890 l 950 947 b 772 1068 899 999 839 1039 b 557 1111 706 1097 633 1111 b 342 1067 481 1111 408 1096 b 164 947 274 1038 215 999 b 44 772 114 897 74 839 b 0 556 15 704 0 632 b 44 342 0 481 15 410 b 164 164 74 274 114 215 b 342 44 215 114 274 74 z "},"D":{"ha":1153,"x_min":0,"x_max":0,"o":"m 882 769 b 761 947 851 838 813 896 b 585 1067 711 997 651 1038 b 369 1111 517 1096 446 1111 l 0 1111 l 185 925 l 369 925 b 513 897 419 925 468 915 b 631 817 557 878 597 850 b 711 699 665 782 692 743 b 740 556 731 653 740 606 b 711 413 740 506 731 458 b 632 294 692 368 665 329 b 514 214 599 260 558 233 b 369 186 469 196 421 186 l 185 186 l 0 0 l 369 0 b 585 44 446 0 518 15 b 763 164 653 74 713 114 b 882 342 813 215 851 274 b 925 556 911 408 925 479 b 882 769 925 632 911 703 z "},"E":{"ha":883,"x_min":0,"x_max":0,"o":"m 0 15 l 0 0 l 740 0 l 740 186 l 185 186 z m 0 1111 l 185 925 l 740 925 l 740 1111 z m 0 647 l 0 463 l 185 463 l 740 463 l 740 647 l 185 647 z "},"F":{"ha":885,"x_min":0,"x_max":0,"o":"m 0 557 l 0 0 l 185 0 l 185 369 l 740 369 l 740 557 l 185 557 z m 0 1111 l 185 925 l 740 925 l 740 1111 z "},"G":{"ha":1215,"x_min":0,"x_max":0,"o":"m 710 218 b 556 186 663 197 611 186 b 293 293 454 186 365 221 b 186 556 221 365 186 454 b 293 817 186 657 221 744 b 556 925 367 890 454 925 b 817 817 658 925 744 889 l 950 947 b 772 1068 899 999 839 1039 b 556 1111 704 1097 632 1111 b 164 947 401 1111 271 1057 b 0 556 54 839 0 708 b 164 164 0 401 56 272 b 556 0 272 56 401 0 b 694 18 604 0 650 6 b 821 68 740 29 782 46 b 931 147 861 90 897 117 b 1019 250 965 178 994 213 l 835 311 b 710 218 799 271 757 240 z m 556 463 l 835 463 l 1019 647 l 556 647 z "},"H":{"ha":1138,"x_min":0,"x_max":0,"o":"m 740 1111 l 740 649 l 185 649 l 0 463 l 0 0 l 185 0 l 185 463 l 740 463 l 740 0 l 925 0 l 925 1111 z "},"I":{"ha":194,"x_min":0,"x_max":0,"o":"m 185 928 l 0 1111 l 0 0 l 0 0 l 185 186 z "},"J":{"ha":854,"x_min":0,"x_max":0,"o":"m 525 107 l 525 107 b 525 107 525 107 525 107 b 635 369 597 181 635 268 l 635 1111 l 447 1111 l 447 369 b 392 239 447 318 429 275 b 392 239 392 239 392 239 l 474 157 l 474 157 z m 263 0 l 263 0 l 263 0 z m 133 240 l 0 107 b 263 0 72 36 160 0 l 263 186 b 263 186 263 186 263 186 b 133 240 213 186 169 204 z m 474 157 l 474 157 l 525 107 z "},"K":{"ha":979,"x_min":0,"x_max":0,"o":"m 78 478 l 558 0 l 78 478 z m 558 1111 l 78 632 l 78 632 z m 819 1111 l 558 1111 l 78 632 l 78 632 l 0 554 l 78 478 l 78 478 l 558 0 l 819 0 l 264 556 z "},"L":{"ha":856,"x_min":0,"x_max":0,"o":"m 185 186 l 0 0 l 740 0 l 740 186 z m 0 1111 l 0 1081 l 0 251 l 185 438 l 185 1081 l 185 1111 z "},"M":{"ha":1325,"x_min":0,"x_max":0,"o":"m 0 853 l 557 293 l 929 664 l 929 0 l 1113 0 l 1113 1111 l 557 556 l 0 1111 z "},"N":{"ha":1136,"x_min":0,"x_max":0,"o":"m 739 1111 l 739 446 l 0 1111 l 0 831 l 924 0 l 924 1 l 924 3 l 924 1111 z "},"O":{"ha":1340,"x_min":0,"x_max":0,"o":"m 556 1111 b 164 947 401 1111 271 1056 b 0 556 56 839 0 708 b 164 164 0 401 56 272 b 556 0 272 56 401 0 b 947 164 710 0 839 56 b 1113 556 1057 271 1113 401 b 947 947 1113 708 1057 839 b 556 1111 839 1056 710 1111 z m 556 925 b 817 817 657 925 744 889 b 925 556 889 744 925 657 b 817 293 925 454 890 367 b 556 186 744 221 657 186 b 293 293 454 186 365 221 b 186 556 221 365 186 454 b 293 817 186 657 221 744 b 556 925 367 890 454 925 z "},"P":{"ha":1083,"x_min":0,"x_max":0,"o":"m 817 1003 b 556 1111 744 1075 657 1111 l 0 1111 l 185 925 l 556 925 b 685 871 606 925 649 907 b 740 740 722 835 740 790 b 685 610 740 689 721 646 b 556 556 649 574 606 556 l 185 556 l 0 556 l 0 0 l 185 0 l 185 369 l 556 369 b 817 478 657 369 744 406 b 925 740 890 550 925 639 b 817 1003 925 842 889 929 z "},"Q":{"ha":1336,"x_min":0,"x_max":0,"o":"m 556 0 b 878 101 678 0 785 33 l 743 236 b 556 186 688 203 625 186 b 293 293 453 186 365 222 b 185 557 222 365 185 453 b 293 818 185 658 222 746 b 556 928 365 889 453 928 b 818 818 658 928 746 889 b 926 557 889 746 926 658 b 874 367 926 486 908 422 l 1008 232 b 1111 556 1078 326 1111 433 b 949 949 1111 710 1057 840 b 556 1111 840 1058 710 1111 b 163 949 403 1111 271 1058 b 0 556 53 840 1 708 b 161 161 -1 403 51 271 b 556 0 269 53 400 0 z "},"R":{"ha":1057,"x_min":0,"x_max":0,"o":"m 792 532 b 857 742 836 594 857 664 b 749 1003 857 843 821 929 b 488 1111 676 1075 589 1111 l 0 1111 l 96 946 l 117 925 l 488 925 b 617 871 538 925 581 907 b 672 742 654 835 672 792 b 617 610 672 690 654 646 b 488 556 581 574 538 556 l 322 557 l 644 0 l 857 0 l 629 399 b 792 532 694 425 749 469 z "},"S":{"ha":1115,"x_min":0,"x_max":0,"o":"m 600 463 b 699 421 639 463 671 449 b 740 324 725 393 740 361 b 729 269 740 304 736 286 b 700 225 722 251 713 238 b 654 196 688 213 672 203 b 600 186 638 189 619 186 l 600 0 b 829 94 690 0 767 32 b 925 324 893 158 925 235 b 829 553 925 413 893 489 b 600 647 767 615 690 647 l 324 647 b 224 689 283 647 251 661 b 185 788 197 717 185 749 b 194 840 185 806 188 824 b 224 885 201 857 211 872 b 269 915 238 899 251 908 b 324 925 286 922 304 925 l 324 1111 b 94 1015 233 1111 157 1079 b 0 788 32 951 0 876 b 94 557 0 697 32 621 b 324 463 157 494 233 463 z "},"T":{"ha":708,"x_min":0,"x_max":0,"o":"m 0 1111 l 0 925 l 0 0 l 186 0 l 186 925 l 556 925 l 556 1111 z "},"U":{"ha":1086,"x_min":0,"x_max":0,"o":"m 740 463 b 657 268 740 388 711 322 b 461 186 603 214 538 186 b 264 268 385 186 318 213 b 185 463 211 321 185 386 l 185 1111 l 0 1111 l 0 463 b 135 135 0 336 44 225 b 461 0 225 44 335 0 b 789 135 588 0 699 44 b 925 463 881 225 925 335 z "},"V":{"ha":822,"x_min":0,"x_max":0,"o":"m 0 1111 l 556 0 l 660 207 l 207 1111 z "},"W":{"ha":1968,"x_min":0,"x_max":0,"o":"m 207 1111 l 0 1111 l 453 207 l 557 415 z m 1603 1111 l 1254 415 l 1008 904 l 904 696 l 1254 0 l 1810 1111 z "},"X":{"ha":1276,"x_min":0,"x_max":0,"o":"m 238 1111 l 0 1111 l 436 556 l 553 706 z m 0 0 l 238 0 l 553 406 l 436 556 z m 1104 1111 l 869 1111 l 553 706 l 671 556 z m 553 406 l 869 0 l 1104 0 l 671 556 z "},"Y":{"ha":1233,"x_min":0,"x_max":0,"o":"m 671 556 l 1104 1111 l 869 1111 l 553 706 l 238 1111 l 0 1111 l 436 556 l 0 0 l 238 0 l 553 406 l 553 404 z m 553 406 l 238 0 l 553 404 z "},"Z":{"ha":1175,"x_min":0,"x_max":0,"o":"m 725 925 l 1104 1111 l 1104 1111 l 0 1111 l 0 925 l 725 925 z m 381 186 l 381 186 l 0 0 l 1113 0 l 1113 186 z "},"[":{"ha":583,"x_min":0,"x_max":0,"o":"m 556 925 l 556 1111 l 0 1111 l 0 925 l 0 0 l 186 0 l 556 0 l 556 186 l 186 186 l 186 925 z "},"\\":{"ha":1233,"x_min":0,"x_max":0,"o":"m 435 556 l 0 0 l 436 556 z m 238 0 l 553 404 l 553 406 z m 869 1111 l 435 556 l 436 556 l 0 0 l 238 0 l 553 406 l 553 404 l 671 556 l 1104 1111 z "},"]":{"ha":768,"x_min":0,"x_max":0,"o":"m 369 925 l 369 186 l 0 186 l 0 0 l 369 0 l 556 0 l 556 925 l 556 1111 l 0 1111 l 0 925 z "},"~":{"ha":1167,"x_min":0,"x_max":0,"o":"m 876 649 l 385 649 l 556 868 l 674 1019 l 746 1111 l 510 1111 l 439 1019 l 147 649 l 0 463 l 731 463 l 442 93 l 368 0 l 369 0 l 606 0 l 678 93 l 967 463 l 1111 649 z "},"†":{"ha":925,"x_min":0,"x_max":0,"o":"m 882 822 l 533 822 l 533 1111 l 349 1111 l 349 822 l 0 822 l 0 636 l 349 636 l 349 0 l 533 0 l 533 636 l 882 636 z "},"≠":{"ha":1167,"x_min":0,"x_max":0,"o":"m 872 1111 l 656 833 l 892 833 l 1108 1111 z m 365 463 l 0 463 l 0 278 l 221 278 l 3 0 l 240 0 l 457 278 l 1111 278 l 1111 463 l 601 463 l 556 404 l 556 406 l 456 278 l 221 278 l 367 463 z m 0 649 l 511 649 l 656 833 l 0 833 z m 892 833 l 746 649 l 1111 649 l 1111 833 z "}}}
